<svg fill="none" viewBox="0 0 16 16" xmlns="http://www.w3.org/2000/svg"><path d="m1 8h11.86l-3.63 4.36c-.08405.1011-.14735.2178-.18631.3434-.03895.1256-.05278.2576-.04071.3885.02438.2645.1528.5084.35702.6781s.4675.2514.7319.227.5084-.1528.6781-.357l5-6c.0336-.04772.0637-.09786.09-.15 0-.05.05-.08.07-.13.0453-.11466.0691-.23671.07-.36-.0009-.12329-.0247-.24534-.07-.36 0-.05-.05-.08-.07-.13-.0263-.05214-.0564-.10227-.09-.15l-5-5.999998c-.094-.112883-.2118-.203663-.3448-.2658839-.1331-.062221-.2783-.09435477-.4252-.09411619-.23365-.00045651-.46009.08091889-.64.23000009-.10126.083949-.18496.18705-.24631.303397-.06136.116347-.09915.243655-.11123.374632-.01207.130979.00181.263049.04085.388649.03905.12561.10249.24227.18669.34332l3.63 4.36h-11.86c-.265217 0-.51957.10536-.707107.2929-.187536.18753-.292893.44189-.292893.7071 0 .26522.105357.51957.292893.70711.187537.18754.44189.29289.707107.29289z" fill="#fff"/></svg>