<svg fill="none" height="16" viewBox="0 0 16 16" width="16" xmlns="http://www.w3.org/2000/svg"><path d="m11.7085 14c-.1067.0004-.2118-.0247-.3067-.0734l-3.40001-1.78-3.4 1.78c-.1104.0581-.23488.084-.35928.0748-.1244-.0091-.24373-.053-.34443-.1266s-.17872-.174-.22521-.2898c-.04648-.1157-.05956-.2422-.03774-.365l.66666-3.75336-2.74666-2.66667c-.0857-.08551-.14649-.19275-.17585-.3102s-.02619-.24068.00918-.35646c.03864-.11849.10972-.22377.20517-.3039s.21145-.1319.33483-.14944l3.8-.55333 1.67334-3.42c.05459-.11271.13982-.20777.24594-.27428.10611-.06652.22882-.10179.35405-.10179.12524 0 .24795.03527.35406.10179.10612.06651.19135.16157.24594.27428l1.69331 3.41333 3.8.55334c.1234.01753.2394.06931.3349.14944.0954.08013.1665.18541.2051.30389.0354.11578.0386.23901.0092.35646s-.0901.22469-.1758.31021l-2.7467 2.66666.6667 3.75333c.0238.125.0113.2542-.036.3723-.0472.1181-.1273.2203-.2307.2944-.1207.0846-.2661.1268-.4133.12z" fill="#fff"/></svg>