<svg fill="none" height="18" viewBox="0 0 17 18" width="17" xmlns="http://www.w3.org/2000/svg"><g fill="#fff"><path d="m11.5988 2.47238c.8212.00246 1.6081.32976 2.1888.91044s.908 1.36754.9104 2.18874v6.19774c-.0024.8212-.3297 1.608-.9104 2.1887s-1.3676.908-2.1888.9104h-6.19765c-.8212-.0024-1.60806-.3297-2.18874-.9104s-.90798-1.3675-.91044-2.1887v-6.19774c.00246-.8212.32976-1.60806.91044-2.18874s1.36754-.90798 2.18874-.91044zm0-1.23947h-6.19765c-2.38631 0-4.33865 1.95234-4.33865 4.33865v6.19774c0 2.3863 1.95234 4.3386 4.33865 4.3386h6.19765c2.3864 0 4.3387-1.9523 4.3387-4.3386v-6.19774c0-2.38631-1.9523-4.33865-4.3387-4.33865z"/><path d="m12.5312 5.57233c-.1838 0-.3636-.05453-.5165-.15668-.1528-.10216-.272-.24735-.3424-.41723-.0703-.16988-.0887-.35681-.0529-.53715.0359-.18034.1244-.346.2545-.47602.13-.13002.2956-.21856.476-.25443.1803-.03588.3672-.01747.5371.0529s.3151.18953.4173.34241c.1021.15289.1566.33264.1566.51651.0003.12216-.0236.24317-.0702.35609-.0466.11291-.1151.2155-.2015.30189-.0864.08638-.189.15485-.3019.20148-.1129.04662-.2339.07049-.3561.07023z"/><path d="m8.5 6.19113c.49035 0 .9697.14541 1.37741.41784.40769.27242.72549.65963.91319 1.11266.1876.45303.2367.95153.141 1.43246-.0956.48094-.3318.92271-.6785 1.26941-.34672.3468-.78849.5829-1.26942.6785-.48093.0957-.97943.0466-1.43246-.141-.45303-.1877-.84024-.5055-1.11266-.9132-.27243-.40769-.41784-.88703-.41784-1.37739.00071-.65733.26214-1.28753.72694-1.75234.46481-.4648 1.09501-.72623 1.75234-.72694zm0-1.23947c-.7355 0-1.45448.2181-2.06603.62672-.61154.40862-1.08818.98941-1.36965 1.66893-.28146.67951-.3551 1.42723-.21161 2.14859.14349.7214.49766 1.384 1.01774 1.9041.52007.52 1.18269.8742 1.90406 1.0177.72136.1435 1.46908.0699 2.14859-.2116.6795-.2815 1.2603-.7581 1.6689-1.3697.4086-.6115.6267-1.33049.6267-2.06599 0-.98627-.3917-1.93215-1.0891-2.62955s-1.64333-1.0892-2.6296-1.0892z"/></g></svg>