<svg width="23" height="23" viewBox="0 0 23 23" fill="none" xmlns="http://www.w3.org/2000/svg">
<path d="M20.3968 7.92813L14.6939 7.09932L12.1446 1.93106C12.075 1.78956 11.9605 1.67501 11.8189 1.60538C11.4641 1.43018 11.0328 1.57618 10.8554 1.93106L8.30606 7.09932L2.60323 7.92813C2.446 7.95059 2.30225 8.02471 2.19219 8.13702C2.05914 8.27378 1.98582 8.45776 1.98834 8.64855C1.99087 8.83934 2.06904 9.02132 2.20567 9.1545L6.33174 13.1773L5.35694 18.8576C5.33408 18.9898 5.3487 19.1257 5.39915 19.2499C5.44959 19.3742 5.53384 19.4818 5.64235 19.5606C5.75085 19.6394 5.87926 19.6862 6.01302 19.6958C6.14678 19.7053 6.28054 19.6772 6.39913 19.6146L11.5 16.9327L16.6009 19.6146C16.7401 19.6887 16.9019 19.7134 17.0568 19.6864C17.4477 19.619 17.7105 19.2484 17.6431 18.8576L16.6683 13.1773L20.7943 9.1545C20.9066 9.04444 20.9808 8.90069 21.0032 8.74346C21.0639 8.3504 20.7898 7.98653 20.3968 7.92813Z" fill="url(#paint0_linear_958_1648)"/>
<defs>
<linearGradient id="paint0_linear_958_1648" x1="1.64335" y1="8.62249" x2="21.3576" y2="8.62249" gradientUnits="userSpaceOnUse">
<stop stop-color="#D55774"/>
<stop offset="1" stop-color="#EBB784"/>
</linearGradient>
</defs>
</svg>
