<svg width="22" height="22" viewBox="0 0 22 22" fill="none" xmlns="http://www.w3.org/2000/svg">
<path d="M18.332 6.41406H3.66536C2.65284 6.41406 1.83203 7.23487 1.83203 8.2474V17.4141C1.83203 18.4266 2.65284 19.2474 3.66536 19.2474H18.332C19.3446 19.2474 20.1654 18.4266 20.1654 17.4141V8.2474C20.1654 7.23487 19.3446 6.41406 18.332 6.41406Z" stroke="#263E56" stroke-width="1.57143" stroke-linecap="round" stroke-linejoin="round"/>
<path d="M14.9275 6.28348V3.48983C14.9275 3.39722 14.7205 3.30839 14.3521 3.24291C13.9838 3.17742 13.4841 3.14062 12.9632 3.14062H9.0346C8.51364 3.14062 8.01401 3.17742 7.64564 3.24291C7.27726 3.30839 7.07031 3.39722 7.07031 3.48983V6.28348" stroke="#263E56" stroke-width="1.57143" stroke-linecap="round" stroke-linejoin="round"/>
</svg>
